<svg width="48" height="48" viewBox="0 0 48 48" fill="none" xmlns="http://www.w3.org/2000/svg"><path d="M14.5338 10.1252V2L2 11.4532L14.5338 20.9082V13.7267H25.7639C34.956 13.7267 42.0472 20.1343 42.0472 28.0606C42.0472 36.0675 35.4263 42.3985 27.0272 42.3985C18.299 42.3985 11.351 36.3727 11.351 28.9141V27.7928H7.39814V28.9141C7.39814 37.7286 16.2471 46 27.0272 46C37.684 46 46 38.0094 46 28.0606C46 18.042 37.05 10.1252 25.7639 10.1252H14.5338Z" fill="#006AFF"/><path d="M20.0197 35.4621V22.5791L16.8972 23.3566L16.2529 21.1354L20.9366 19.8026H23.043V35.4621H20.0197Z" fill="#006AFF"/><path d="M31.7079 35.7285C29.0563 35.7285 26.9746 34.7734 25.339 33.3519L27.2224 31.375C28.6102 32.53 30.0723 33.2408 31.6831 33.2408C33.7648 33.2408 35.1278 32.1746 35.1278 30.5532V30.5087C35.1278 28.9317 33.6409 27.9321 31.5344 27.9321C30.2954 27.9321 29.2297 28.2431 28.3376 28.6207L26.5038 27.5323L26.9994 19.9136H37.3829V22.3347H29.6263L29.3537 25.9775C30.1714 25.7109 30.9397 25.5332 32.1044 25.5332C35.4747 25.5332 38.1511 27.1325 38.1511 30.4199V30.4643C38.1511 33.6406 35.549 35.7285 31.7079 35.7285Z" fill="#006AFF"/></svg>