<svg xmlns="http://www.w3.org/2000/svg" width="1440" height="1024" fill="none" viewBox="0 0 1440 1024"><path fill="#fff" d="M0 0h1440v1024H0z"/><path fill="#333" fill-rule="evenodd" d="M376.187 97.472h.79l4.24 4.26c.41.41.41 1.08 0 1.49-.41.41-1.08.41-1.49 0l-4.25-4.25v-.79l-.27-.28a6.5 6.5 0 01-5.34 1.48c-2.78-.47-5-2.79-5.34-5.59a6.505 6.505 0 017.27-7.27c2.8.34 5.12 2.56 5.59 5.34a6.5 6.5 0 01-1.48 5.34l.28.27zm-9.71-4.5c0 2.49 2.01 4.5 4.5 4.5s4.5-2.01 4.5-4.5-2.01-4.5-4.5-4.5-4.5 2.01-4.5 4.5z" clip-rule="evenodd"/><path fill="#333" d="M207.563 87.517a5.073 5.073 0 000 7.326L217 104l9.437-9.157a5.073 5.073 0 000-7.326c-2.085-2.023-5.465-2.023-7.55 0L217 89.35l-1.887-1.832c-2.085-2.023-5.465-2.023-7.55 0z"/><path fill="#333" fill-rule="evenodd" d="M296.887 87.517L295 89.35l-1.887-1.832c-2.085-2.023-5.465-2.023-7.55 0a5.073 5.073 0 000 7.326L295 104l9.437-9.157a5.073 5.073 0 000-7.326c-2.085-2.023-5.465-2.023-7.55 0zM295 101.47l8.148-7.906a3.296 3.296 0 000-4.766c-1.371-1.33-3.601-1.33-4.972 0L295 91.88l-3.176-3.082c-1.371-1.33-3.601-1.33-4.972 0a3.296 3.296 0 000 4.766l8.148 7.906z" clip-rule="evenodd"/><path fill="#333" d="M222 164h-10c-1.1 0-2 .9-2 2v16l7-3 7 3v-16c0-1.1-.9-2-2-2z"/><path fill="#333" fill-rule="evenodd" d="M290 164h10c1.1 0 2 .9 2 2v16l-7-3-7 3v-16c0-1.1.9-2 2-2zm5 12.82l5 2.18v-12c0-.55-.45-1-1-1h-8c-.55 0-1 .45-1 1v12l5-2.18zM294.002 242.999c0-.55.45-1 1-1 5.07 0 9.16 4.19 8.99 9.29-.15 4.7-4.08 8.6-8.78 8.71-5.07.12-9.21-3.96-9.21-9 0-2.6 1.1-4.93 2.86-6.56.4-.37 1.02-.36 1.4.02l5.44 5.43a.996.996 0 11-1.41 1.41l-4.71-4.72a6.917 6.917 0 00-1.58 4.42c0 3.91 3.19 7.06 7.12 7 3.85-.06 7.02-3.41 6.88-7.26-.13-3.41-2.69-6.18-6-6.66v.92c0 .55-.45 1-1 1s-1-.45-1-1v-2zm-5 8a1 1 0 112 0 1 1 0 01-2 0zm5 5a1 1 0 112 0 1 1 0 01-2 0zm6-6a1 1 0 100 2 1 1 0 000-2zM215.002 240.5h4c.55 0 1 .45 1 1s-.45 1-1 1h-4c-.55 0-1-.45-1-1s.45-1 1-1zm3 12c0 .55-.45 1-1 1s-1-.45-1-1v-4c0-.55.45-1 1-1s1 .45 1 1v4zm6.03-5.61l.75-.75a.993.993 0 000-1.4l-.01-.01a.993.993 0 00-1.4 0l-.75.75a8.962 8.962 0 00-5.62-1.98c-4.8 0-8.88 3.96-9 8.76a8.998 8.998 0 009 9.24 8.994 8.994 0 007.03-14.61zm-14.03 5.61c0 3.87 3.13 7 7 7s7-3.13 7-7-3.13-7-7-7-7 3.13-7 7zM378.313 242.765c.526 1.33 1.314 3.416 1.314 4.736 0 5.795-4.783 10.106-10.491 10.106-1.333 0-2.988-.644-4.194-1.164 1.776 2.862 5.122 4.807 8.541 4.807 5.384 0 9.767-4.387 9.767-9.778 0-3.412-2.09-6.926-4.937-8.707zm.185-1.393c-.448-.222-1.102-.274-1.459.084-.353.353-.334 1.03-.112 1.482.624 1.27 1.2 3.218 1.2 4.563 0 4.888-4.03 8.606-8.991 8.606-1.332 0-2.872-.571-4.194-1.229-.448-.224-1.08-.221-1.437.137-.355.355-.356.978-.134 1.428a11.199 11.199 0 0010.112 6.307c6.214 0 11.267-5.06 11.267-11.278 0-4.305-2.397-8.178-6.251-10.099l-.001-.001zM366.5 240a.5.5 0 01.5-.5h3a.5.5 0 01.386.818l-2.327 2.825H370a.5.5 0 010 1h-3a.499.499 0 01-.386-.817l2.327-2.826H367a.5.5 0 01-.5-.5zM361.5 246.196a.5.5 0 01.5-.5h3a.502.502 0 01.393.809l-2.363 3.004H365a.5.5 0 010 1h-3a.501.501 0 01-.393-.809l2.363-3.004H362a.5.5 0 01-.5-.5z" clip-rule="evenodd"/><path fill="#333" fill-rule="evenodd" d="M367.5 249a.5.5 0 01.5-.5h4a.5.5 0 01.382.823l-3.306 3.916H372a.5.5 0 010 1h-4a.499.499 0 01-.382-.823l3.306-3.916H368a.5.5 0 01-.5-.5zM454.5 87h2.5c.55 0 1 .45 1 1s-.45 1-1 1h-12c-.55 0-1-.45-1-1s.45-1 1-1h2.5l.71-.71c.18-.18.44-.29.7-.29h4.18c.26 0 .52.11.7.29l.71.71zm-7.5 17c-1.1 0-2-.9-2-2V92c0-1.1.9-2 2-2h8c1.1 0 2 .9 2 2v10c0 1.1-.9 2-2 2h-8z" clip-rule="evenodd"/><path fill="#333" d="M525.795 98.875l-3.47-3.47a.995.995 0 00-1.41 0 .996.996 0 000 1.41l4.18 4.18c.39.39 1.02.39 1.41 0l10.58-10.58a.996.996 0 10-1.41-1.41l-9.88 9.87z"/><path fill="#333" fill-rule="evenodd" d="M295 321.5c-5 0-9.27 3.11-11 7.5 1.73 4.39 6 7.5 11 7.5s9.27-3.11 11-7.5c-1.73-4.39-6-7.5-11-7.5zm0 12.5c-2.76 0-5-2.24-5-5s2.24-5 5-5 5 2.24 5 5-2.24 5-5 5zm-3-5c0-1.66 1.34-3 3-3s3 1.34 3 3-1.34 3-3 3-3-1.34-3-3zM441.71 321.54a.996.996 0 010-1.41c.39-.39 1.03-.39 1.42 0l16.31 16.33a.996.996 0 11-1.41 1.41l-2.72-2.72c-1.34.52-2.79.82-4.31.82-5 0-9.27-3.11-11-7.5.77-1.97 2.06-3.67 3.68-4.96l-1.97-1.97zm14.29 6.93c0-2.76-2.24-5-5-5-.51 0-1 .1-1.47.24l-2.17-2.17c1.15-.37 2.37-.57 3.64-.57 5 0 9.27 3.11 11 7.49-.69 1.76-1.79 3.3-3.18 4.53l-3.06-3.06c.14-.46.24-.95.24-1.46zm-5 5c-2.76 0-5-2.24-5-5 0-.77.18-1.5.49-2.14l1.57 1.57c-.03.18-.06.37-.06.57 0 1.66 1.34 3 3 3 .2 0 .38-.03.57-.07l1.57 1.57c-.65.32-1.37.5-2.14.5zm2.97-5.33a2.97 2.97 0 00-2.64-2.64l2.64 2.64zM597 100a1 1 0 001 1h18a1 1 0 000-2h-18a1 1 0 00-1 1zm0-5a1 1 0 001 1h18a1 1 0 000-2h-18a1 1 0 00-1 1zm1-6a1 1 0 000 2h18a1 1 0 000-2h-18z" clip-rule="evenodd"/><path fill="#333" d="M457 169h-2c-.55 0-1 .45-1 1s.45 1 1 1h2v11h-12v-11h2c.55 0 1-.45 1-1s-.45-1-1-1h-2c-1.1 0-2 .9-2 2v11c0 1.1.9 2 2 2h12c1.1 0 2-.9 2-2v-11c0-1.1-.9-2-2-2z"/><path fill="#333" d="M451 177c.55 0 1-.45 1-1v-10h1.79c.45 0 .67-.54.35-.85l-2.79-2.79c-.2-.2-.51-.2-.71 0l-2.79 2.79a.5.5 0 00.36.85H450v10c0 .55.45 1 1 1zM379 177.12c-.76 0-1.44.3-1.96.77l-7.13-4.15c.05-.23.09-.46.09-.7 0-.24-.04-.47-.09-.7l7.05-4.11c.54.5 1.25.81 2.04.81 1.66 0 3-1.34 3-3s-1.34-3-3-3-3 1.34-3 3c0 .24.04.47.09.7l-7.05 4.11c-.54-.5-1.25-.81-2.04-.81-1.66 0-3 1.34-3 3s1.34 3 3 3c.79 0 1.5-.31 2.04-.81l7.12 4.16c-.05.21-.08.43-.08.65 0 1.61 1.31 2.92 2.92 2.92 1.61 0 2.92-1.31 2.92-2.92 0-1.61-1.31-2.92-2.92-2.92z"/><path fill="#333" fill-rule="evenodd" d="M612 169a5 5 0 11-10.001-.001A5 5 0 01612 169zm2 0a7 7 0 11-14 0 7 7 0 0114 0zm-10 10a1 1 0 011-1h4a1 1 0 010 2h-4a1 1 0 01-1-1zm0 3a1 1 0 011-1h4a1 1 0 010 2h-1a1 1 0 01-2 0h-1a1 1 0 01-1-1zM536 169a7 7 0 11-14 0 7 7 0 0114 0zm-10 10a1 1 0 011-1h4a1 1 0 010 2h-4a1 1 0 01-1-1zm1 2a1 1 0 000 2h1a1 1 0 002 0h1a1 1 0 000-2h-4zM373 319c-5.52 0-10 4.48-10 10s4.48 10 10 10 10-4.48 10-10-4.48-10-10-10zm0 5c-.55 0-1 .45-1 1v3h-3c-.55 0-1 .45-1 1s.45 1 1 1h3v3c0 .55.45 1 1 1s1-.45 1-1v-3h3c.55 0 1-.45 1-1s-.45-1-1-1h-3v-3c0-.55-.45-1-1-1zm-8 5c0 4.41 3.59 8 8 8s8-3.59 8-8-3.59-8-8-8-8 3.59-8 8zM207 329c0-5.52 4.48-10 10-10s10 4.48 10 10-4.48 10-10 10-10-4.48-10-10zm11 1h3c.55 0 1-.45 1-1s-.45-1-1-1h-3v-3c0-.55-.45-1-1-1s-1 .45-1 1v3h-3c-.55 0-1 .45-1 1s.45 1 1 1h3v3c0 .55.45 1 1 1s1-.45 1-1v-3zM529 319c-5.53 0-10 4.47-10 10s4.47 10 10 10 10-4.47 10-10-4.47-10-10-10zm1.89 6.7l-1.89 1.89-1.89-1.89a.996.996 0 10-1.41 1.41l1.89 1.89-1.89 1.89a.996.996 0 101.41 1.41l1.89-1.89 1.89 1.89a.996.996 0 101.41-1.41l-1.89-1.89 1.89-1.89a.996.996 0 000-1.41c-.39-.38-1.03-.38-1.41 0zM521 329c0 4.41 3.59 8 8 8s8-3.59 8-8-3.59-8-8-8-8 3.59-8 8zM597 329c0-5.52 4.48-10 10-10s10 4.48 10 10-4.48 10-10 10-10-4.48-10-10zm3.7.7l3.59 3.59c.39.39 1.03.39 1.41 0l7.59-7.59a.996.996 0 10-1.41-1.41l-6.88 6.88-2.89-2.88a.996.996 0 10-1.41 1.41zM685 319c-5.52 0-10 4.48-10 10s4.48 10 10 10 10-4.48 10-10-4.48-10-10-10zm0 18c-4.41 0-8-3.59-8-8s3.59-8 8-8 8 3.59 8 8-3.59 8-8 8zm-2-5.83l5.88-5.88c.39-.39 1.03-.39 1.42 0 .39.39.39 1.02 0 1.41l-6.59 6.59a.996.996 0 01-1.41 0l-2.59-2.59a.996.996 0 111.41-1.41l1.88 1.88z" clip-rule="evenodd"/><path fill="#333" d="M453 251c0 .74-.4 1.38-1 1.72V260c0 .55-.45 1-1 1s-1-.45-1-1v-7.28c-.6-.35-1-.98-1-1.72 0-1.1.9-2 2-2s2 .9 2 2zm-3.25-5.87c-2.27.46-4.12 2.28-4.61 4.55-.4 1.86.07 3.62 1.08 4.94.35.45 1.03.47 1.43.07l.07-.07c.34-.34.34-.87.06-1.25-.68-.9-.98-2.1-.66-3.37.35-1.42 1.52-2.57 2.95-2.88A3.99 3.99 0 01455 251c0 .87-.28 1.67-.76 2.32-.3.41-.29.97.07 1.33.44.44 1.17.37 1.54-.14.72-.98 1.15-2.2 1.15-3.51 0-3.72-3.39-6.65-7.25-5.87zm.08-4.06c-4.53.51-8.22 4.18-8.76 8.71-.35 2.95.59 5.67 2.32 7.7.37.43 1.03.46 1.43.06l.05-.05c.35-.35.38-.92.05-1.3a7.972 7.972 0 01-1.7-7.06c.7-3.01 3.18-5.39 6.22-5.97 5.09-.98 9.56 2.92 9.56 7.84 0 1.96-.72 3.76-1.9 5.16a1 1 0 00.05 1.35c.42.42 1.11.39 1.49-.07A9.934 9.934 0 00461 251c0-5.91-5.13-10.62-11.17-9.93z"/><path fill="#333" fill-rule="evenodd" d="M537 242h-16c-.55 0-1 .45-1 1v16c0 .55.45 1 1 1h16c.55 0 1-.45 1-1v-16c0-.55-.45-1-1-1zm-11 4h-2v2h2v-2zm7 2h-4c-.55 0-1-.45-1-1s.45-1 1-1h4c.55 0 1 .45 1 1s-.45 1-1 1zm0 4h-4c-.55 0-1-.45-1-1s.45-1 1-1h4c.55 0 1 .45 1 1s-.45 1-1 1zm-4 4h4c.55 0 1-.45 1-1s-.45-1-1-1h-4c-.55 0-1 .45-1 1s.45 1 1 1zm-5-6h2v2h-2v-2zm2 4h-2v2h2v-2zm-4 4h14v-14h-14v14z" clip-rule="evenodd"/><path fill="#333" d="M614 252v5c0 .55-.45 1-1 1h-12c-.55 0-1-.45-1-1v-5c0-.55-.45-1-1-1s-1 .45-1 1v6c0 1.1.9 2 2 2h14c1.1 0 2-.9 2-2v-6c0-.55-.45-1-1-1s-1 .45-1 1zm-6-.33l1.88-1.88a.996.996 0 111.41 1.41l-3.59 3.59a.996.996 0 01-1.41 0l-3.59-3.59a.996.996 0 111.41-1.41l1.89 1.88V243c0-.55.45-1 1-1s1 .45 1 1v8.67z"/><g><path fill="#333" fill-rule="evenodd" d="M220 404.5h1.59c.89 0 1.33 1.08.7 1.71l-4.59 4.59a.996.996 0 01-1.41 0l-4.59-4.59c-.63-.63-.18-1.71.71-1.71H214v-5c0-.55.45-1 1-1h4c.55 0 1 .45 1 1v5zm-9 11c-.55 0-1-.45-1-1s.45-1 1-1h12c.55 0 1 .45 1 1s-.45 1-1 1h-12z" clip-rule="evenodd"/></g><g><path fill="#333" fill-rule="evenodd" d="M289 406.418l2.19 2.19a2 2 0 002.82.01l7-6.93c.55-.54.55-1.42.01-1.96l-.04-.04c-.54-.54-1.41-.54-1.95 0l-6.43 6.43-1.65-1.65c-.52-.52-1.38-.54-1.92-.02-.57.53-.58 1.42-.03 1.97zm12 6.3h-12c-.55 0-1 .45-1 1s.45 1 1 1h12c.55 0 1-.45 1-1s-.45-1-1-1z" clip-rule="evenodd"/></g><g><path fill="#333" fill-rule="evenodd" d="M677 91.694h12.871v1.92H677v-1.92zM677 87h16v1.92h-16V87zM677 96.386h16v1.92h-16v-1.92zM677 101.08h12.871V103H677v-1.92z" clip-rule="evenodd"/></g><g><path fill="#333" d="M130 164h-10c-1.1 0-2 .9-2 2v16l7-3 7 3v-16c0-1.1-.9-2-2-2z"/></g></svg>