<svg viewBox="0 0 16 13" fill="none" xmlns="http://www.w3.org/2000/svg"><path fill-rule="evenodd" clip-rule="evenodd" d="M10.9022 0.21936C9.77563 0.21936 8.75302 0.664508 7.99958 1.38747C7.24549 0.664508 6.22353 0.21936 5.0978 0.21936C2.77975 0.21936 0.900574 2.09854 0.900574 4.41659C0.900574 5.66404 1.44625 6.78394 2.31104 7.55316L6.97697 12.2182C7.24636 12.4885 7.60524 12.6381 7.98856 12.6381C8.41252 12.6381 8.7714 12.4902 9.04165 12.2208L13.7988 7.46193C13.8302 7.4308 13.8598 7.39772 13.8868 7.36486C14.6366 6.60644 15.0995 5.56524 15.0995 4.41659C15.0995 2.09854 13.2205 0.21936 10.9022 0.21936Z" fill="#fff"/></svg>