<svg viewBox="0 0 161 139" fill="none" xmlns="http://www.w3.org/2000/svg"><g clip-path="url(#clip0_2_38)"><path d="M141.46 9.29002C133.856 3.22287 124.408 -0.0652813 114.68 -0.0299923C91.93 -0.0299923 81.68 16.97 80.47 18.58C70.87 6.11999 54.9 -2.23001 39.01 0.579993C25.86 2.90999 15.55 9.96999 8.29998 21.58C-1.89002 37.92 -2.70001 53.67 5.83999 68.42C10.9123 76.9772 17.0071 84.8853 23.99 91.97C37.99 106.49 54.51 120.28 76.1 135.36C77.48 136.36 80.46 138.22 80.46 138.22C80.46 138.22 84.46 135.61 85.22 135.03C104.4 121.66 120.12 108.78 133.3 95.66C140.76 88.24 149.23 79.11 155.42 67.72C158.07 62.84 161.09 56.3 160.91 48.8C160.51 32.66 153.96 19.38 141.46 9.29002Z" fill="#F2674E"/></g><defs><clipPath id="clip0_2_38"><rect width="160.9" height="138.2" fill="#fff"/></clipPath></defs></svg>