<svg xmlns="http://www.w3.org/2000/svg" width="24" height="24" fill="none" viewBox="0 0 24 24"><path fill="#333" fill-rule="evenodd" d="M17.313 3.765c.526 1.33 1.314 3.416 1.314 4.736 0 5.795-4.783 10.106-10.491 10.106-1.333 0-2.988-.644-4.194-1.164 1.776 2.862 5.122 4.807 8.541 4.807 5.384 0 9.767-4.387 9.767-9.778 0-3.412-2.09-6.926-4.937-8.707zm.185-1.393c-.448-.222-1.102-.274-1.46.084-.352.353-.333 1.03-.111 1.482.624 1.27 1.2 3.218 1.2 4.563 0 4.888-4.03 8.606-8.991 8.606-1.332 0-2.872-.571-4.194-1.23-.448-.223-1.08-.22-1.437.138-.355.355-.356.978-.134 1.428 1.908 3.888 5.786 6.307 10.112 6.307 6.214 0 11.267-5.06 11.267-11.278 0-4.305-2.397-8.178-6.25-10.099h-.002zM5.5 1A.5.5 0 016 .5h3a.5.5 0 01.386.818L7.059 4.143H9a.5.5 0 010 1H6a.5.5 0 01-.386-.817L7.941 1.5H6a.5.5 0 01-.5-.5zM.5 7.196a.5.5 0 01.5-.5h3a.5.5 0 01.393.81L2.03 10.508H4a.5.5 0 110 1H1a.5.5 0 01-.393-.809L2.97 7.696H1a.5.5 0 01-.5-.5z" clip-rule="evenodd"/><path fill="#333" fill-rule="evenodd" d="M6.5 10a.5.5 0 01.5-.5h4a.5.5 0 01.382.822L8.076 14.24H11a.5.5 0 110 1H7a.5.5 0 01-.382-.823L9.924 10.5H7a.5.5 0 01-.5-.5z" clip-rule="evenodd"/></svg>