<svg width="24" height="24" viewBox="0 0 24 24" fill="none" xmlns="http://www.w3.org/2000/svg">
<path fill-rule="evenodd" clip-rule="evenodd" d="M17.3133 3.76524C17.8385 5.09484 18.6273 7.18068 18.6273 8.50147C18.6273 14.2961 13.8439 18.6073 8.13573 18.6073C6.8033 18.6073 5.14814 17.963 3.94231 17.4429C5.71795 20.3048 9.06408 22.25 12.4834 22.25C17.8672 22.25 22.25 17.8634 22.25 12.4718C22.25 9.06047 20.1601 5.54632 17.3133 3.76524ZM17.4982 2.37233C17.0505 2.15022 16.3959 2.09778 16.0385 2.45555C15.6859 2.80851 15.7046 3.48599 15.9265 3.93778C16.5513 5.20845 17.1273 7.15635 17.1273 8.50147C17.1273 13.3888 13.0965 17.1073 8.13573 17.1073C6.80437 17.1073 5.26365 16.5357 3.94231 15.8776C3.49419 15.6544 2.86201 15.6569 2.50474 16.0147C2.15001 16.3696 2.14893 16.9932 2.37051 17.4429C4.27922 21.3306 8.15749 23.75 12.4834 23.75C18.6972 23.75 23.75 18.6902 23.75 12.4718C23.75 8.16669 21.3534 4.29416 17.4995 2.37297L17.4982 2.37233Z" fill="#333333"/>
<path fill-rule="evenodd" clip-rule="evenodd" d="M5.50001 1C5.50001 0.723858 5.72386 0.5 6.00001 0.5H9.00001C9.19348 0.5 9.36959 0.611622 9.45217 0.78659C9.53475 0.961559 9.50898 1.16847 9.38599 1.31783L7.0594 4.1434H9.00001C9.27615 4.1434 9.50001 4.36726 9.50001 4.6434C9.50001 4.91954 9.27615 5.1434 9.00001 5.1434H6.00001C5.80653 5.1434 5.63042 5.03178 5.54784 4.85681C5.46526 4.68184 5.49103 4.47493 5.61402 4.32557L7.94061 1.5H6.00001C5.72386 1.5 5.50001 1.27614 5.50001 1Z" fill="#333333"/>
<path fill-rule="evenodd" clip-rule="evenodd" d="M0.500004 7.19623C0.500004 6.92009 0.723862 6.69623 1 6.69623H4C4.19148 6.69623 4.36613 6.80557 4.44977 6.97781C4.53342 7.15004 4.51135 7.35492 4.39296 7.5054L2.02961 10.5092H4C4.27615 10.5092 4.5 10.733 4.5 11.0092C4.5 11.2853 4.27615 11.5092 4 11.5092H1C0.808533 11.5092 0.633876 11.3998 0.550234 11.2276C0.466592 11.0554 0.488655 10.8505 0.60705 10.7L2.9704 7.69623H1C0.723862 7.69623 0.500004 7.47237 0.500004 7.19623Z" fill="#333333"/>
<path fill-rule="evenodd" clip-rule="evenodd" d="M6.50001 10C6.50001 9.72386 6.72386 9.5 7.00001 9.5H11C11.1946 9.5 11.3715 9.61289 11.4535 9.78936C11.5354 9.96583 11.5076 10.1738 11.3821 10.3225L8.07639 14.2387H11C11.2761 14.2387 11.5 14.4625 11.5 14.7387C11.5 15.0148 11.2761 15.2387 11 15.2387H7.00001C6.80543 15.2387 6.62852 15.1258 6.54654 14.9493C6.46457 14.7728 6.49242 14.5648 6.61793 14.4161L9.92363 10.5H7.00001C6.72386 10.5 6.50001 10.2761 6.50001 10Z" fill="#333333"/>
</svg>
